PathFileType	4	(X/Y/Z)	C:\Users\Kira\Nextcloud\Documents\MA\Daten\C3D\P01\post\Stand01\marker_experimental.trc																																																																																																																																																																																																																																																																																																																																																																																																																																																																																																																																																																																																																																																																																																																			
DataRate	CameraRate	NumFrames	NumMarkers	Units	OrigDataRate	OrigDataStartFrame	OrigNumFrames																																																																																																																																																																																																																																																																																																																																																																																																																																																																																																																																																																																																																																																																																																															
150	150	2	231	mm	150	18	150																																																																																																																																																																																																																																																																																																																																																																																																																																																																																																																																																																																																																																																																																																															
Frame#	Time	LFHD			LBHD			RFHD			RBHD			C7			T10			CLAV			STRN			RBAK			LSHO			LUPA			LELB			LFRA			LWRB			LWRA			LFIN			RSHO			RUPA			RELB			RFRA			RWRB			RWRA			RFIN			SACR			LASI			RASI			LT1			LT2			LT3			LS1			LS2			LS3			LHEE			LTOE			RT1			RT2			RT3			RS1			RS2			RS3			RHEE			RTOE			PELO			PELA			PELL			PELP			SACO			SACA			SACL			SACP			LFEO			LFEA			LFEL			LFEP			RFEO			RFEA			RFEL			RFEP			LTIO			LTIA			LTIL			LTIP			RTIO			RTIA			RTIL			RTIP			LFOO			LFOA			LFOL			LFOP			RFOO			RFOA			RFOL			RFOP			LTOO			LTOA			LTOL			LTOP			RTOO			RTOA			RTOL			RTOP			HEDO			HEDA			HEDL			HEDP			LCLO			LCLA			LCLL			LCLP			RCLO			RCLA			RCLL			RCLP			TRXO			TRXA			TRXL			TRXP			LHUO			LHUA			LHUL			LHUP			LRAO			LRAA			LRAL			LRAP			LHNO			LHNA			LHNL			LHNP			RHUO			RHUA			RHUL			RHUP			RRAO			RRAA			RRAL			RRAP			RHNO			RHNA			RHNL			RHNP			LPelvisAngles			RPelvisAngles			LFootProgressAngles			RFootProgressAngles			LHipAngles			RHipAngles			LKneeAngles			RKneeAngles			LAnkleAngles			RAnkleAngles			LFFootAngles			RFFootAngles			LAbsAnkleAngle			RAbsAnkleAngle			RNeckAngles			LNeckAngles			RSpineAngles			LSpineAngles			LShoulderAngles			LElbowAngles			LWristAngles			RShoulderAngles			RElbowAngles			RWristAngles			RThoraxAngles			LThoraxAngles			RHeadAngles			LHeadAngles			LHipPower			LKneePower			LAnklePower			RHipPower			RKneePower			RAnklePower			LWaistPower			RWaistPower			LNeckPower			RNeckPower			LShoulderPower			RShoulderPower			LElbowPower			RElbowPower			LWristPower			RWristPower			F_ForcePlate1			F_ForcePlate2			F_ForcePlate3			LGRF			RGRF			LHipForce			RHipForce			LKneeForce			RKneeForce			LAnkleForce			RAnkleForce			LWaistForce			RWaistForce			LNeckForce			RNeckForce			LShoulderForce			RShoulderForce			LElbowForce			RElbowForce			LWristForce			RWristForce			LNormalisedGRF			RNormalisedGRF			LGroundReactionForce			RGroundReactionForce			LHipMoment			RHipMoment			LKneeMoment			RKneeMoment			LAnkleMoment			RAnkleMoment			LWaistMoment			RWaistMoment			LNeckMoment			RNeckMoment			LShoulderMoment			RShoulderMoment			LElbowMoment			RElbowMoment			LWristMoment			RWristMoment			LKNE			RKNE			LANK			RANK			LKJC			RKJC			LAJC			RAJC			LTHI			RTHI			LTIB			RTIB			P_ForcePlate1			P_ForcePlate2			P_ForcePlate3			CentreOfMass			CentreOfMassFloor			funktRKJC			funktLKJC			funktRHIP			funktLHIP			LHJC			RHJC			LHF		
		X1	Y1	Z1	X2	Y2	Z2	X3	Y3	Z3	X4	Y4	Z4	X5	Y5	Z5	X6	Y6	Z6	X7	Y7	Z7	X8	Y8	Z8	X9	Y9	Z9	X10	Y10	Z10	X11	Y11	Z11	X12	Y12	Z12	X13	Y13	Z13	X14	Y14	Z14	X15	Y15	Z15	X16	Y16	Z16	X17	Y17	Z17	X18	Y18	Z18	X19	Y19	Z19	X20	Y20	Z20	X21	Y21	Z21	X22	Y22	Z22	X23	Y23	Z23	X24	Y24	Z24	X25	Y25	Z25	X26	Y26	Z26	X27	Y27	Z27	X28	Y28	Z28	X29	Y29	Z29	X30	Y30	Z30	X31	Y31	Z31	X32	Y32	Z32	X33	Y33	Z33	X34	Y34	Z34	X35	Y35	Z35	X36	Y36	Z36	X37	Y37	Z37	X38	Y38	Z38	X39	Y39	Z39	X40	Y40	Z40	X41	Y41	Z41	X42	Y42	Z42	X43	Y43	Z43	X44	Y44	Z44	X45	Y45	Z45	X46	Y46	Z46	X47	Y47	Z47	X48	Y48	Z48	X49	Y49	Z49	X50	Y50	Z50	X51	Y51	Z51	X52	Y52	Z52	X53	Y53	Z53	X54	Y54	Z54	X55	Y55	Z55	X56	Y56	Z56	X57	Y57	Z57	X58	Y58	Z58	X59	Y59	Z59	X60	Y60	Z60	X61	Y61	Z61	X62	Y62	Z62	X63	Y63	Z63	X64	Y64	Z64	X65	Y65	Z65	X66	Y66	Z66	X67	Y67	Z67	X68	Y68	Z68	X69	Y69	Z69	X70	Y70	Z70	X71	Y71	Z71	X72	Y72	Z72	X73	Y73	Z73	X74	Y74	Z74	X75	Y75	Z75	X76	Y76	Z76	X77	Y77	Z77	X78	Y78	Z78	X79	Y79	Z79	X80	Y80	Z80	X81	Y81	Z81	X82	Y82	Z82	X83	Y83	Z83	X84	Y84	Z84	X85	Y85	Z85	X86	Y86	Z86	X87	Y87	Z87	X88	Y88	Z88	X89	Y89	Z89	X90	Y90	Z90	X91	Y91	Z91	X92	Y92	Z92	X93	Y93	Z93	X94	Y94	Z94	X95	Y95	Z95	X96	Y96	Z96	X97	Y97	Z97	X98	Y98	Z98	X99	Y99	Z99	X100	Y100	Z100	X101	Y101	Z101	X102	Y102	Z102	X103	Y103	Z103	X104	Y104	Z104	X105	Y105	Z105	X106	Y106	Z106	X107	Y107	Z107	X108	Y108	Z108	X109	Y109	Z109	X110	Y110	Z110	X111	Y111	Z111	X112	Y112	Z112	X113	Y113	Z113	X114	Y114	Z114	X115	Y115	Z115	X116	Y116	Z116	X117	Y117	Z117	X118	Y118	Z118	X119	Y119	Z119	X120	Y120	Z120	X121	Y121	Z121	X122	Y122	Z122	X123	Y123	Z123	X124	Y124	Z124	X125	Y125	Z125	X126	Y126	Z126	X127	Y127	Z127	X128	Y128	Z128	X129	Y129	Z129	X130	Y130	Z130	X131	Y131	Z131	X132	Y132	Z132	X133	Y133	Z133	X134	Y134	Z134	X135	Y135	Z135	X136	Y136	Z136	X137	Y137	Z137	X138	Y138	Z138	X139	Y139	Z139	X140	Y140	Z140	X141	Y141	Z141	X142	Y142	Z142	X143	Y143	Z143	X144	Y144	Z144	X145	Y145	Z145	X146	Y146	Z146	X147	Y147	Z147	X148	Y148	Z148	X149	Y149	Z149	X150	Y150	Z150	X151	Y151	Z151	X152	Y152	Z152	X153	Y153	Z153	X154	Y154	Z154	X155	Y155	Z155	X156	Y156	Z156	X157	Y157	Z157	X158	Y158	Z158	X159	Y159	Z159	X160	Y160	Z160	X161	Y161	Z161	X162	Y162	Z162	X163	Y163	Z163	X164	Y164	Z164	X165	Y165	Z165	X166	Y166	Z166	X167	Y167	Z167	X168	Y168	Z168	X169	Y169	Z169	X170	Y170	Z170	X171	Y171	Z171	X172	Y172	Z172	X173	Y173	Z173	X174	Y174	Z174	X175	Y175	Z175	X176	Y176	Z176	X177	Y177	Z177	X178	Y178	Z178	X179	Y179	Z179	X180	Y180	Z180	X181	Y181	Z181	X182	Y182	Z182	X183	Y183	Z183	X184	Y184	Z184	X185	Y185	Z185	X186	Y186	Z186	X187	Y187	Z187	X188	Y188	Z188	X189	Y189	Z189	X190	Y190	Z190	X191	Y191	Z191	X192	Y192	Z192	X193	Y193	Z193	X194	Y194	Z194	X195	Y195	Z195	X196	Y196	Z196	X197	Y197	Z197	X198	Y198	Z198	X199	Y199	Z199	X200	Y200	Z200	X201	Y201	Z201	X202	Y202	Z202	X203	Y203	Z203	X204	Y204	Z204	X205	Y205	Z205	X206	Y206	Z206	X207	Y207	Z207	X208	Y208	Z208	X209	Y209	Z209	X210	Y210	Z210	X211	Y211	Z211	X212	Y212	Z212	X213	Y213	Z213	X214	Y214	Z214	X215	Y215	Z215	X216	Y216	Z216	X217	Y217	Z217	X218	Y218	Z218	X219	Y219	Z219	X220	Y220	Z220	X221	Y221	Z221	X222	Y222	Z222	X223	Y223	Z223	X224	Y224	Z224	X225	Y225	Z225	X226	Y226	Z226	X227	Y227	Z227	X228	Y228	Z228	X229	Y229	Z229	X230	Y230	Z230	X231	Y231	Z231
																																																																																																																																																																																																																																																																																																																																																																																																																																																																																																																																																																																																																																																																																																																						
19	0.12	-334.9031677	1545.869751	1295.632935	-332.4815369	1521.543213	1156.363892	-461.4967651	1543.435181	1302.226074	-483.4394226	1518.676147	1176.43457	-400.150238	1406.655762	1145.549805	-392.9003601	1226.312988	1082.675415	-407.0532227	1339.012817	1262.824707	-408.2672729	1302.659058	1283.415039	-507.3467102	1268.264282	1072.355957	-254.0769196	1380.01355	1179.765503	-145.789856	1189.460083	1150.688477	-88.53070068	1113.862305	1171.340942	-42.36180496	1070.579956	1192.75293	46.92808533	939.7944336	1269.369995	20.20429993	947.9125977	1333.265625	75.69586182	899.088623	1351.138306	-554.5161743	1368.335449	1171.224365	-622.5279541	1282.37146	1151.687622	-694.3980713	1093.571411	1140.535278	-818.2337646	952.9300537	1195.667969	-843.7764282	910.7183838	1213.622314	-843.821106	936.255249	1279.397949	-902.4101563	884.6293335	1288.14502	-393.6685181	971.4257813	1077.554199	-254.1099091	934.8366699	1264.218506	-540.196228	934.4897461	1255.63623	-205.9335327	643.94104	1234.802124	-190.9346466	553.3469238	1154.168945	-235.0365753	567.6177368	1289.768311	-202.7684784	258.3330078	1178.150635	-188.002533	179.3813324	1086.285522	-227.4647522	178.7546844	1222.924438	-275.4254761	39.25629044	1091.336548	-226.2646484	38.91290283	1252.099976	-583.4179077	661.1688232	1194.739258	-555.0932007	589.3545532	1097.748413	-582.3171997	572.5527344	1237.893433	-577.0737915	267.5896606	1152.971436	-555.3117065	202.5720825	1052.887573	-571.194397	182.5418396	1192.835205	-495.2760315	41.10988617	1085.099731	-539.6974487	39.99639893	1246.196655	-395.0693359	848.9261475	1194.933716	-395.5099792	845.9397583	1209.743042	-382.4801331	848.9414063	1195.311401	-395.9651489	972.3918457	1219.804688	-393.4810486	959.5498047	1136.516113	-393.6646423	958.305481	1142.686768	-387.1864319	959.5574341	1136.704956	-393.9289246	1021.282715	1148.951538	-281.4819336	469.9197083	1217.098145	-274.614502	472.8399048	1254.668945	-244.1397095	474.5246277	1209.914551	-332.1253052	849.0655518	1196.885864	-498.3858032	474.1474609	1204.630981	-505.4946289	476.0631714	1241.603882	-461.5841064	470.4075928	1211.900635	-458.0131531	848.7866821	1192.981812	-266.2842712	45.39312363	1149.457153	-248.2522278	40.70150757	1182.953979	-231.3610229	49.54610825	1131.238892	-280.2781067	436.2937622	1211.740479	-505.4190674	50.45282364	1141.739258	-521.0419312	45.3885231	1177.604004	-469.2042542	47.57044601	1157.107544	-498.9429016	440.5874329	1199.649414	-226.9974213	49.24926376	1252.801636	-227.94104	62.55916595	1253.7052	-214.2433624	50.41495895	1248.950073	-266.1168823	55.14877319	1125.04834	-539.3447876	50.16142273	1247.133789	-538.8875732	63.33934784	1248.348755	-526.5628052	49.40673828	1250.509277	-505.0600281	60.72359848	1119.669067	-214.1538849	47.65890503	1294.849487	-214.4518585	51.86203384	1295.134888	-210.1262817	48.02701187	1293.633179	-226.5074768	49.52221298	1254.50647	-550.6107178	47.03387833	1289.094971	-550.4663086	51.19532776	1289.478638	-546.5742798	46.79553223	1290.160889	-539.7841797	50.36929321	1248.842773	-409.4630737	1443.579712	1125.018311	-393.1494751	1484.60022	1346.527588	-184.3344574	1448.630493	1107.502808	-417.5975037	1665.63147	1084.496338	-257.7315674	1333.231934	1177.097412	-179.6286926	1318.648071	1325.824097	-244.6200562	1501.067505	1186.669556	-406.5952454	1340.362915	1255.971436	-546.8148193	1322.046753	1168.569336	-631.859375	1299.804077	1309.667969	-519.574646	1158.321655	1159.178345	-406.5951843	1340.362915	1255.971436	-406.5952454	1340.362915	1255.971436	-417.5496826	1308.071655	1419.892456	-573.6038818	1337.980469	1244.341309	-402.0197144	1176.093506	1223.917358	-120.5663834	1095.442139	1169.494019	-207.8582611	1053.305054	912.5491943	-341.8850098	964.6883545	1266.125244	-257.7315369	1333.231934	1177.097412	29.23591423	938.4703979	1300.190674	35.74038696	791.4923096	1116.208984	-160.6135712	826.3083496	1383.082031	-110.0802307	1084.454102	1178.642822	94.94385529	833.7028809	1391.873169	206.872406	933.7452393	1425.975586	177.7322693	781.5996704	1273.000122	29.23593903	938.4703979	1300.190674	-662.3939209	1077.706665	1150.181396	-501.8776855	1017.567078	940.3803711	-847.5283203	1178.105347	979.7579346	-546.8147583	1322.046753	1168.569336	-838.8870239	918.838562	1248.318115	-779.7685547	753.2199097	1086.528442	-1002.178101	1007.391541	1098.002319	-674.7484131	1066.585938	1157.050903	-936.1075439	826.6066895	1335.993774	-1059.596802	921.6269531	1299.018921	-905.3804932	916.6622314	1464.801392	-838.8870239	918.838562	1248.318115	-0.407524437	1.670727611	-11.38925552	0.407524437	-1.670727611	-11.38925552	-4.231196404	-17.00824928	-2.64396739	-2.048519135	-15.00579453	-4.736814022	7.616110802	-12.15539265	-14.21710491	6.160963058	-9.203324318	-13.36166286	-3.136410952	-16.28613853	-12.91333103	-3.082728624	-11.4698925	-11.03575897	0.645268381	10.72474766	-5.627171516	0.305375457	8.230315208	-3.370033264	1.62E-15	7.95E-16	3.98E-16	-2.98E-15	-3.98E-16	-1.59E-15	5.66E-16	0	-9.248484612	5.32E-16	0	-8.68269825	1.154345155	-8.364992142	21.34856033	-1.154345155	8.364992142	21.34856033	-1.178708911	2.073251963	0.271341205	1.178708911	-2.073251963	0.271341205	-29.12896729	-29.46479034	-6.154632092	2.15E-15	-4.38E-12	-35.14579773	10.92957687	123.6423645	-1.676880479	-26.56460953	-40.43622971	-7.781912804	6.88E-15	-4.30E-12	-34.43663406	8.219968796	115.6667786	-7.063350677	1.565974832	-3.752761602	-11.04139996	-1.565974832	3.752761602	-11.04139996	2.063909054	4.144604683	-10.34201145	-2.063909054	-4.144604683	-10.34201145	2.75E-20	0.000448415	1.68E-36	-1.55E-20	-0.000253333	-9.50E-37	1.02E-21	1.67E-05	6.27E-38	-1.97E-20	-0.000322293	-1.21E-36	-2.97E-21	-4.86E-05	-1.82E-37	-1.38E-23	-2.25E-07	-8.43E-40	2.07E-20	0.000338013	1.27E-36	2.07E-20	0.000338013	1.27E-36	-6.24E-20	-0.001019445	-3.82E-36	-6.24E-20	-0.001019445	-3.82E-36	-1.68E-20	-0.000274916	-1.03E-36	3.64E-20	0.000594258	2.23E-36	1.23E-21	2.00E-05	7.50E-38	-1.66E-20	-0.000271732	-1.02E-36	-1.78E-21	-2.91E-05	-1.09E-37	4.62E-22	7.54E-06	2.83E-38	-398.0210266	1.304700017	259.0899963	-231.4150085	1.697000027	-251.3170013	-396.9869995	4.582600117	-949.9620361	0	0	0	0	0	0	-0.19036375	1.563426137	-0.12022467	0.15642029	1.569547772	-0.07985653	-0.062811717	0.590607584	0.073154867	0.043716393	0.591803193	0.076892078	-0.012404441	-0.006263209	0.141561776	0.008107761	-0.011346277	0.141560256	-0.006665779	4.46197319	0.901129663	-0.006665779	4.46197319	0.901129663	-0.129745826	8.846382141	1.743272066	-0.129745826	8.846382141	1.743272066	0.234001249	0.424910754	0.07493791	-0.181468293	0.442253888	0.108740166	0.103052683	0.133874521	0.134647518	-0.079497084	0.133349851	0.149639368	0.019869024	0.040112037	-0.038352758	-0.033277616	0.03380318	-0.034728706	0	0	0	0	0	0	0	0	0	0	0	0	-58.49015045	-2.545433283	16.08312798	-46.01963425	-1.669036865	6.786580563	-14.97273064	0.791374505	9.996723175	-10.34310722	0.5394153	10.88725758	-1.302053809	0.723125577	7.595014572	-0.935833693	0.508568883	7.569896698	-14.46498013	-2.812345505	-66.40337372	14.46498013	2.812345505	-66.40337372	-78.80751038	-29.4317646	933.7909546	78.80751038	29.4317646	933.7909546	-57.22462845	-9.874574661	36.24239731	-43.88596344	-7.697280407	45.43093491	-16.50814056	-0.454347402	22.1426239	-12.86134624	-0.5144099	25.25177765	-1.159622073	1.41E-15	-2.243262529	-2.026365757	-4.96E-15	-2.107997656	-226.7506714	480.0515137	1206.306519	-552.3309326	482.2859192	1193.837158	-230.4565735	46.39737701	1130.311035	-541.7376709	46.99687576	1125.430664	-281.4819336	469.9197083	1217.098145	-498.3858032	474.1474304	1204.630981	-266.4347534	49.59635925	1150.126831	-505.3494568	54.64782333	1142.361938	-194.7770233	673.3074951	1185.441284	-588.6046753	672.6865845	1176.997192	-168.5114594	253.3024292	1125.944092	-610.8254395	254.1672821	1124.589478	-398.0210266	1.304700017	259.0899963	-231.4150085	1.697000027	-251.3170013	-396.9869995	4.582600117	-949.9620361	-397.9516907	934.4679565	1233.966675	-397.9516907	2.44E-14	1233.966675	0	0	0	0	0	0	0	0	0	0	0	0	-332.1253967	849.0656738	1196.885742	-458.0133057	848.7866211	1192.981689	-0.190363765	1.563426137	-0.12022467
20	0.126666667	-334.888092	1545.861694	1295.697021	-332.484314	1521.542236	1156.42749	-461.4837952	1543.426758	1302.310791	-483.4398499	1518.672607	1176.517456	-400.1504517	1406.651123	1145.620605	-392.9041748	1226.311157	1082.737793	-407.0427856	1339.003174	1262.895142	-408.2549438	1302.648438	1283.481567	-507.3539124	1268.259277	1072.437256	-254.0743866	1380.006348	1179.817139	-145.7951202	1189.449707	1150.727051	-88.53466797	1113.850464	1171.372314	-42.3656044	1070.566772	1192.779663	46.92718506	939.7781372	1269.388672	20.20727158	947.8942871	1333.286377	75.69248962	899.0644531	1351.155151	-554.5132446	1368.328735	1171.303711	-622.5254517	1282.365723	1151.765625	-694.3963013	1093.570068	1140.607056	-818.243042	952.9417114	1195.711304	-843.7888184	910.7285156	1213.666016	-843.8343506	936.2620239	1279.436401	-902.4296265	884.6420898	1288.179199	-393.6693115	971.4326172	1077.625977	-254.1184692	934.8208618	1264.290039	-540.2091675	934.4849243	1255.691772	-205.9481659	643.9351807	1234.861328	-190.9405212	553.3482666	1154.208252	-235.0520172	567.6048584	1289.807373	-202.7728882	258.3329163	1178.163818	-188.0048981	179.3880615	1086.294434	-227.4701843	178.7508392	1222.932617	-275.4267883	39.25881195	1091.333618	-226.265686	38.91268921	1252.098633	-583.4266968	661.1673584	1194.768799	-555.0929565	589.3613281	1097.775269	-582.3286743	572.5465698	1237.917725	-577.0751953	267.5906677	1152.97583	-555.3085327	202.5785675	1052.893921	-571.196167	182.54039	1192.838989	-495.2749634	41.1139946	1085.099609	-539.701416	39.99370575	1246.197144	-395.0795288	848.9222412	1194.98877	-395.5211487	845.9343872	1209.797852	-382.4903259	848.9370117	1195.367188	-395.9723206	972.3855591	1219.871948	-393.4841003	959.5516968	1136.582397	-393.6680908	958.3067627	1142.752808	-387.1894836	959.559082	1136.771606	-393.9305115	1021.283325	1149.024048	-281.4885864	469.9150696	1217.111328	-274.6251526	472.8303528	1254.682739	-244.1460571	474.5215454	1209.932251	-332.1358032	849.0594482	1196.944336	-498.3935547	474.1462097	1204.655762	-505.5055542	476.0595703	1241.628052	-461.5925598	470.40625	1211.928345	-458.023407	848.7850952	1193.033325	-266.2879944	45.39468384	1149.456909	-248.2566223	40.70206451	1182.953613	-231.3647614	49.54840088	1131.239502	-280.2845154	436.2897034	1211.752563	-505.4172363	50.4548378	1141.745483	-521.0413208	45.38871384	1177.609497	-469.2029724	47.57242203	1157.11499	-498.9498901	440.5863953	1199.672729	-226.9985962	49.24902344	1252.800537	-227.9423523	62.55889511	1253.704468	-214.2446442	50.41496658	1248.948608	-266.1216125	55.15097809	1125.048462	-539.348938	50.15869141	1247.134766	-538.8920288	63.33657074	1248.350342	-526.5671997	49.40406799	1250.511108	-505.0554199	60.72694397	1119.672852	-214.1539917	47.65790558	1294.848145	-214.4520111	51.86102295	1295.133545	-210.1264343	48.0260849	1293.631714	-226.5087891	49.52138138	1254.505371	-550.6176147	47.0291214	1289.095093	-550.4733276	51.19055176	1289.478882	-546.5812988	46.79080582	1290.161255	-539.788208	50.36612701	1248.843872	-409.4687195	1443.57959	1125.089233	-393.1291199	1484.589722	1346.598511	-184.3422852	1448.633545	1107.547119	-417.6102905	1665.633301	1084.578857	-257.7298889	1333.224854	1177.147095	-179.6068726	1318.632324	1325.86499	-244.6149597	1501.062256	1186.726318	-406.5853271	1340.353638	1256.04187	-546.8115234	1322.040283	1168.645752	-631.8487549	1299.78894	1309.749878	-519.5697021	1158.313965	1159.244385	-406.5852966	1340.353638	1256.04187	-406.5853882	1340.353638	1256.04187	-417.5257874	1308.053223	1419.964355	-573.597229	1337.970337	1244.425659	-402.0111084	1176.08374	1223.978271	-120.570961	1095.431152	1169.527466	-207.8828583	1053.302979	912.5871582	-341.8864441	964.6799927	1266.171631	-257.72995	1333.224854	1177.147095	29.23682022	938.453186	1300.210449	35.7252121	791.4787598	1116.22522	-160.6095123	826.2937622	1383.112549	-110.0843964	1084.442627	1178.675293	94.93383789	833.6749268	1391.885254	206.8733521	933.701355	1425.989502	177.7124329	781.5684814	1273.009399	29.23684692	938.453186	1300.210449	-662.3939819	1077.705078	1150.258667	-501.8396606	1017.540283	940.4979248	-847.4887695	1178.092285	979.7904053	-546.8115234	1322.040283	1168.645752	-838.9003296	918.8465576	1248.359375	-779.7460327	753.2272339	1086.597778	-1002.15155	1007.386841	1098.008545	-674.7493896	1066.584961	1157.125732	-936.1361084	826.6210938	1336.022461	-1059.611938	921.6546631	1299.042847	-905.4102173	916.6668091	1464.835571	-838.9003906	918.8464355	1248.359375	-0.406159908	1.67423296	-11.39493752	0.406159908	-1.67423296	-11.39493752	-4.23202467	-17.00971413	-2.645022631	-2.047402382	-15.009552	-4.739663124	7.618880272	-12.15244675	-14.21548271	6.158438206	-9.205186844	-13.36352825	-3.138964176	-16.29144096	-12.90820503	-3.083031654	-11.46710587	-11.03466225	0.64509058	10.72229099	-5.627720356	0.305262059	8.228583336	-3.36990428	-2.98E-16	-3.18E-15	-1.59E-15	-3.28E-15	-7.95E-16	-7.95E-16	5.66E-16	0	-9.248867035	5.32E-16	0	-8.682986259	1.154653788	-8.366936684	21.34885979	-1.154653788	8.366936684	21.34885979	-1.179761052	2.064807415	0.273828655	1.179761052	-2.064807415	0.273828655	-29.12728691	-29.46473694	-6.156633854	-1.03E-15	6.97E-12	-35.14619446	10.93545246	123.6420212	-1.675093412	-26.56582642	-40.45497513	-7.782740116	3.70E-15	5.03E-13	-34.432621	8.221628189	115.678215	-7.065078735	1.565527678	-3.747886896	-11.04463196	-1.565527678	3.747886896	-11.04463196	2.06571269	4.151218891	-10.33905125	-2.06571269	-4.151218891	-10.33905125	2.71E-20	0.000442251	1.66E-36	-1.53E-20	-0.000250575	-9.40E-37	1.03E-21	1.69E-05	6.33E-38	-1.94E-20	-0.000317173	-1.19E-36	-2.98E-21	-4.86E-05	-1.82E-37	1.03E-23	1.68E-07	6.30E-40	2.10E-20	0.00034318	1.29E-36	2.10E-20	0.00034318	1.29E-36	-5.41E-20	-0.000883095	-3.31E-36	-5.41E-20	-0.000883095	-3.31E-36	-1.66E-20	-0.000270871	-1.02E-36	3.54E-20	0.000577858	2.17E-36	1.19E-21	1.94E-05	7.29E-38	-1.59E-20	-0.000259916	-9.75E-37	-1.74E-21	-2.85E-05	-1.07E-37	5.19E-22	8.48E-06	3.18E-38	-398.0210266	1.304700017	259.0899963	-231.4150085	1.697000027	-251.3170013	-396.9869995	4.582600117	-949.9620361	0	0	0	0	0	0	-0.190426186	1.563431382	-0.120026469	0.156427056	1.569551468	-0.079760715	-0.062822089	0.590604007	0.073170401	0.043716952	0.591799855	0.0769177	-0.01240711	-0.00626523	0.141561463	0.008107468	-0.011352239	0.141559839	-0.006490799	4.461884022	0.901569605	-0.006490799	4.461884022	0.901569605	-0.129789978	8.84628582	1.743755579	-0.129789978	8.84628582	1.743755579	0.233995721	0.424916625	0.074921802	-0.181450084	0.442249835	0.10878592	0.103050217	0.133879781	0.134644166	-0.079489216	0.13334769	0.149645135	0.019870559	0.040116638	-0.038347133	-0.033273902	0.033801336	-0.034733772	0	0	0	0	0	0	0	0	0	0	0	0	-58.50543594	-2.545219421	16.02817917	-46.0207901	-1.669206977	6.757281303	-14.97538471	0.791543067	10.00026512	-10.34329319	0.539410412	10.8935318	-1.30208683	0.723286808	7.594973087	-0.935798824	0.508572459	7.56956768	-14.45575619	-2.81466341	-66.5247879	14.45575619	2.81466341	-66.5247879	-78.73774719	-29.42372322	933.5611572	78.73774719	29.42372322	933.5611572	-57.22299576	-9.874379158	36.23890305	-43.88137817	-7.695540428	45.43891907	-16.50742722	-0.45449847	22.14175987	-12.85939598	-0.514513314	25.25177193	-1.159713984	-1.21E-15	-2.242911816	-2.026125669	-3.42E-15	-2.108302355	-226.7567902	480.0513916	1206.32666	-552.3378296	482.2848511	1193.857788	-230.4599304	46.40004349	1130.311401	-541.7349854	46.99848938	1125.435425	-281.4885864	469.9151001	1217.111328	-498.3935242	474.1462097	1204.655762	-266.4385071	49.59785461	1150.126709	-505.3476563	54.64980316	1142.368408	-194.7845459	673.3065796	1185.490845	-588.6114502	672.6855469	1177.026733	-168.5166321	253.3033447	1125.952759	-610.8262329	254.1679077	1124.600708	-398.0210266	1.304700017	259.0899963	-231.4150085	1.697000027	-251.3170013	-396.9869995	4.582600117	-949.9620361	-397.9507446	934.461853	1234.015259	-397.9507446	2.44E-14	1234.015259	0	0	0	0	0	0	0	0	0	0	0	0	-332.1357117	849.0593262	1196.944336	-458.023407	848.7850952	1193.033325	-0.190426186	1.563431382	-0.120026469
